<svg xmlns="http://www.w3.org/2000/svg" width="1024" height="1024" viewBox="0 0 1024 1024">
  <rect width="1024" height="1024" fill="#FAF9F6" rx="160"/>
  <g transform="translate(256 192) scale(16)">
    <path d="M16 3C12.5 8 7 14 7 20a9 9 0 0 0 18 0c0-6-5.5-12-9-17Z" fill="#C4745B" opacity="0.18"/>
    <path d="M16 7C13.5 11 10 15.5 10 20a6 6 0 0 0 12 0c0-4.5-3.5-9-6-13Z" fill="#C4745B" opacity="0.45"/>
    <path d="M16 12C14.5 14.5 13 17 13 20a3 3 0 0 0 6 0c0-3-1.5-5.5-3-8Z" fill="#C4745B"/>
  </g>
</svg>
